<svg width="20" height="20" viewBox="0 0 20 20" fill="none" xmlns="http://www.w3.org/2000/svg">
<ellipse cx="10" cy="15" rx="6" ry="3" fill="#F4F6F8"/>
<circle cx="10" cy="6" r="4" fill="#F4F6F8"/>
<path d="M3.5 3C4.13777 3 4.73505 3.1717 5.25 3.46973C4.2042 4.07498 3.5 5.20477 3.5 6.5C3.5 7.79505 4.20444 8.92398 5.25 9.5293C4.73495 9.82748 4.13794 10 3.5 10C1.567 10 0 8.433 0 6.5C0 4.567 1.567 3 3.5 3Z" fill="#F4F6F8"/>
<path d="M16.5 3C15.8622 3 15.2649 3.1717 14.75 3.46973C15.7958 4.07498 16.5 5.20477 16.5 6.5C16.5 7.79505 15.7956 8.92398 14.75 9.5293C15.265 9.82748 15.8621 10 16.5 10C18.433 10 20 8.433 20 6.5C20 4.567 18.433 3 16.5 3Z" fill="#F4F6F8"/>
<path d="M17.5 11C16.683 11 15.9601 11.3939 15.5039 12C16.8828 12.0021 18 13.1206 18 14.5C18 15.0632 17.8113 15.581 17.4971 15.999L17.5 16C18.8807 16 20 14.8807 20 13.5C20 12.1193 18.8807 11 17.5 11Z" fill="#F4F6F8"/>
<path d="M2.5 11C3.31703 11 4.0399 11.3939 4.49609 12C3.11718 12.0021 2 13.1206 2 14.5C2 15.0632 2.18869 15.581 2.50293 15.999L2.5 16C1.11929 16 0 14.8807 0 13.5C0 12.1193 1.11929 11 2.5 11Z" fill="#F4F6F8"/>
<circle cx="16.5" cy="3.5" r="3" fill="#FF6934" stroke="#262D34"/>
</svg>
